<svg width="299" height="20" viewBox="0 0 299 20" fill="none" xmlns="http://www.w3.org/2000/svg">
<circle cx="10" cy="10" r="10" fill="#FFC40B"/>
<path d="M50.9954 10C50.9954 15.5228 46.5182 20 40.9954 20C35.4725 20 30.9954 15.5228 30.9954 10C30.9954 4.47715 35.4725 0 40.9954 0C46.5182 0 50.9954 4.47715 50.9954 10Z" fill="#594504"/>
<path d="M81.9907 10C81.9907 15.5228 77.5136 20 71.9907 20C66.4679 20 61.9907 15.5228 61.9907 10C61.9907 4.47715 66.4679 0 71.9907 0C77.5136 0 81.9907 4.47715 81.9907 10Z" fill="#404041"/>
<path d="M102.986 0.230469C108.381 0.230469 112.756 4.60462 112.756 10C112.756 15.3954 108.381 19.7695 102.986 19.7695C97.5907 19.7695 93.2166 15.3954 93.2166 10C93.2166 4.60462 97.5907 0.230469 102.986 0.230469Z" fill="white" stroke="black" stroke-width="0.461607"/>
<circle cx="133.982" cy="10" r="10" fill="#FFC40B"/>
<circle cx="164.977" cy="10" r="10" fill="#FFC40B"/>
<circle cx="195.972" cy="10" r="10" fill="#FFC40B"/>
<circle cx="226.968" cy="10" r="10" fill="#FFC40B"/>
<circle cx="257.963" cy="10" r="10" fill="#FFC40B"/>
<circle cx="288.958" cy="10" r="10" fill="#FFC40B"/>
</svg>
