<svg width="180" height="33" viewBox="0 0 180 33" fill="none" xmlns="http://www.w3.org/2000/svg">
<g clip-path="url(#clip0_1_1830)">
<path d="M19.3846 25.0166V33H0V1.375H8.52056V25.0166H19.3846Z" fill="#FFC40B"/>
<path d="M42.7984 27.8648H31.7214L29.9885 33H20.7693L33.0385 1.375H41.4536L54.0001 33H44.5174L42.7984 27.8648ZM37.2391 11.2526L33.8148 21.0459H40.6911L37.2391 11.2526Z" fill="#FFC40B"/>
<path d="M85.8461 1.375V33H78.7784L66.4477 15.8406V33H58.1538V1.375H65.6349L77.5522 17.9592V1.375H85.8461Z" fill="#FFC40B"/>
<path d="M120.462 17.1594C120.462 26.3916 113.693 33 104.164 33H91.3846V1.375H104.164C113.721 1.375 120.462 7.91327 120.462 17.1594ZM111.535 17.1594C111.535 12.4732 108.424 9.35842 103.744 9.35842H100.115V25.0306H103.744C108.424 25.0306 111.535 21.8316 111.535 17.1735V17.1594Z" fill="#FFC40B"/>
<path d="M143.866 27.8648H132.794L131.062 33H121.846L134.124 1.375H142.536L155.077 33H145.598L143.88 27.8648H143.866ZM138.323 11.2526L134.9 21.0459H141.774L138.323 11.2526Z" fill="#FFC40B"/>
<path d="M155.091 22.0512H163.917C163.917 24.2996 165.624 25.3889 167.58 25.3889C169.37 25.3889 171.077 24.4253 171.077 22.7076C171.077 20.7385 168.668 20.1659 165.707 19.4397C161.218 18.3085 155.49 16.912 155.49 9.74778C155.49 3.54719 159.979 0 167.304 0C174.74 0 179.009 3.86839 179.009 10.2785H170.43C170.43 8.29539 168.97 7.35971 167.194 7.35971C165.666 7.35971 164.206 8.03005 164.206 9.4964C164.206 11.284 166.547 11.8705 169.466 12.6246C174.038 13.8256 180 15.3618 180 22.554C180 29.7461 174.795 33 167.58 33C159.979 33 155.077 28.9221 155.077 22.0652L155.091 22.0512Z" fill="#FFC40B"/>
</g>
<defs>
<clipPath id="clip0_1_1830">
<rect width="180" height="33" fill="white"/>
</clipPath>
</defs>
</svg>
